<svg xmlns="http://www.w3.org/2000/svg" width="100" viewBox="0 0 75 75" height="100" version="1.0"><defs><clipPath id="a"><path d="M0 0h74.71v75H0Zm0 0"/></clipPath></defs><g clip-path="url(#a)"><path fill="#d4af37" d="M68.98 49.79H58.672c-.59 0-1.067.476-1.067 1.065v9.579c0 .586.477 1.066 1.067 1.066H68.98a1.07 1.07 0 0 0 1.067-1.066v-9.579c0-.59-.48-1.066-1.067-1.066Zm-9.242 2.132h3.024v2.656h-3.024Zm8.176 7.441h-8.176v-2.652h8.176Zm0-4.785h-3.02v-2.656h3.02Zm3.09-12.84H38.71a3.976 3.976 0 0 0-3.973 3.973v1.59a17.724 17.724 0 0 0-8.23-3.543 11.218 11.218 0 0 0 4.965-9.313 11.16 11.16 0 0 0-1.856-6.172c1.278-6.765 7.23-11.894 14.36-11.894 1.09 0 2.152.121 3.171.348l-1.726 3.695-2.512 5.375c-2.422.5-4.238 2.672-4.238 5.2 0 2.921 2.379 5.3 5.305 5.3a5.309 5.309 0 0 0 5.304-5.3 5.297 5.297 0 0 0-1.011-3.118l1.363-6.012.894-3.933a14.67 14.67 0 0 1 7.703 9.828c0 .008.004.02.004.027.055.246.106.496.145.746.016.082.031.16.043.238.012.094.023.188.039.286.016.113.027.23.039.343.012.078.02.157.027.23.016.2.032.395.043.595v.02c.008.105.008.21.012.316 0 .019.004.039.004.058.004.125.004.25.004.375 0 .59.476 1.067 1.066 1.067H73.91c.59 0 1.067-.477 1.067-1.067 0-.266-.004-.527-.008-.793-.004-.035-.004-.07-.004-.105-.008-.23-.016-.461-.028-.696v-.011c-.39-7.68-3.566-14.844-9.042-20.317a1.236 1.236 0 0 0-.137-.113C60.156 3.42 52.46-.004 43.977-.004c-8.48 0-16.176 3.426-21.782 8.961a1.861 1.861 0 0 0-.14.117c-4.543 4.54-7.5 10.242-8.598 16.438-2.695 2.054-4.437 5.293-4.437 8.933 0 3.875 1.968 7.293 4.96 9.313C5.902 45.008-.273 51.496-.273 59.285v8.172c0 4 3.25 7.25 7.246 7.25h26.543c3.27 0 6.039-2.176 6.937-5.16h30.55a3.976 3.976 0 0 0 3.974-3.973V45.711a3.976 3.976 0 0 0-3.973-3.973ZM46.078 27.91c-.078.34.016.692.246.95.531.59.824 1.347.824 2.136a3.173 3.173 0 0 1-3.171 3.168 3.176 3.176 0 0 1-3.172-3.168 3.192 3.192 0 0 1 2.914-3.164c.383-.031.718-.266.879-.613l3.175-6.79Zm26.746 2.02H60.691a16.627 16.627 0 0 0-4.144-10l8.582-8.578a28.62 28.62 0 0 1 7.695 18.578ZM45.043 2.148c7.156.262 13.652 3.141 18.562 7.704l-8.57 8.574a16.853 16.853 0 0 0-4.023-2.63l1.035-4.562a1.065 1.065 0 0 0-2.004-.688l-1.969 4.208c-.98-.25-1.992-.41-3.031-.477Zm-2.133.004v12.13a16.675 16.675 0 0 0-9.992 4.144l-8.574-8.574a28.762 28.762 0 0 1 18.566-7.7Zm-20.086 9.2 8.578 8.578a16.59 16.59 0 0 0-3.492 6.324 11.17 11.17 0 0 0-7.664-3.035c-1.527 0-2.98.308-4.308.86a28.563 28.563 0 0 1 6.886-12.727ZM11.152 34.445c0-5.015 4.078-9.093 9.094-9.093 5.016 0 9.094 4.078 9.094 9.093 0 5.016-4.078 9.094-9.094 9.094-5.016 0-9.094-4.078-9.094-9.094ZM38.63 67.457a5.121 5.121 0 0 1-5.113 5.117h-.88v-8.55a1.065 1.065 0 1 0-2.132 0v8.55H9.98v-8.55a1.065 1.065 0 1 0-2.132 0v8.55h-.875a5.121 5.121 0 0 1-5.114-5.117v-8.172c0-7.508 6.715-13.613 14.965-13.613h6.836c8.254 0 14.969 6.105 14.969 13.613Zm34.215-1.883a1.84 1.84 0 0 1-1.84 1.84H40.762v-8.133c0-3.785-1.461-7.265-3.89-9.984V45.71a1.84 1.84 0 0 1 1.839-1.84h32.293a1.84 1.84 0 0 1 1.84 1.84ZM52.34 57.98c0 .586-.477 1.067-1.067 1.067H43.04a1.07 1.07 0 0 1-1.066-1.067c0-.59.48-1.066 1.066-1.066h8.234c.59 0 1.067.477 1.067 1.066Zm0 4.672c0 .59-.477 1.067-1.067 1.067H43.04a1.068 1.068 0 0 1-1.066-1.067c0-.59.48-1.066 1.066-1.066h8.234c.59 0 1.067.477 1.067 1.066Zm0-14.023c0 .59-.477 1.066-1.067 1.066h-9.34a1.068 1.068 0 0 1-1.066-1.066c0-.586.48-1.066 1.067-1.066h9.34c.59 0 1.066.48 1.066 1.066Zm0 4.68c0 .586-.477 1.066-1.067 1.066h-9.34a1.07 1.07 0 0 1-1.066-1.066c0-.59.48-1.067 1.067-1.067h9.34c.59 0 1.066.477 1.066 1.067Zm0 0"/></g></svg>