<svg xmlns="http://www.w3.org/2000/svg" width="100" viewBox="0 0 75 75" height="100" version="1.0"><defs><clipPath id="a"><path d="M.703 0h73.5v75H.703Zm0 0"/></clipPath></defs><g clip-path="url(#a)"><path fill="#d4af37" d="M67.828 34.574V21.88h2.742a3.714 3.714 0 0 0 3.711-3.711 3.72 3.72 0 0 0-3.71-3.727H64.167c-2.98.106-5.668-1.293-8.516-2.773-2.668-1.39-5.425-2.828-8.629-3.113h-5.531a5.182 5.182 0 0 0 1.219-3.344C42.71 2.336 40.37 0 37.5 0a5.217 5.217 0 0 0-5.21 5.21c0 1.27.46 2.435 1.218 3.34h-5.45c-.027 0-.054.005-.081.005-3.2.285-5.957 1.722-8.63 3.11-2.843 1.483-5.527 2.882-8.511 2.773H4.43c-2.047 0-3.711 1.671-3.711 3.726a3.718 3.718 0 0 0 3.71 3.715h7.173v12.695C8.094 35.86 5.586 39.23 5.586 43.18c0 5.05 4.11 9.164 9.164 9.164 5.05 0 9.164-4.114 9.164-9.164 0-3.95-2.508-7.32-6.016-8.606V20.27c.934-.446 1.922-.954 2.95-1.48 2.578-1.325 5.238-2.696 7.328-3.169h6.086v27.703H32.77a.936.936 0 0 0-.934.934v19.344H25.57a3.714 3.714 0 0 0-3.71 3.71v1.055h-.106a3.32 3.32 0 0 0-3.317 3.317A3.32 3.32 0 0 0 21.755 75H53.25a3.32 3.32 0 0 0 3.316-3.316 3.32 3.32 0 0 0-3.316-3.317h-.105v-1.055a3.715 3.715 0 0 0-3.715-3.71h-6.266V44.258a.936.936 0 0 0-.934-.934h-1.488V15.621h6.086c2.09.473 4.754 1.844 7.324 3.168 2.88 1.477 5.418 2.781 7.383 3.047v12.742c-3.508 1.285-6.015 4.656-6.015 8.606 0 5.05 4.109 9.164 9.164 9.164 5.05 0 9.16-4.114 9.16-9.164 0-3.95-2.512-7.32-6.016-8.61ZM34.156 5.211c0-1.844 1.5-3.344 3.344-3.344 1.844 0 3.344 1.5 3.344 3.344a3.344 3.344 0 0 1-6.688 0ZM22.046 43.18c0 4.023-3.273 7.297-7.296 7.297s-7.297-3.274-7.297-7.297c0-4.024 3.274-7.293 7.297-7.293s7.297 3.273 7.297 7.293Zm-6.015-9.07a9.246 9.246 0 0 0-2.562 0V21.84c.77-.106 1.629-.371 2.562-.742Zm38.664 37.574c0 .8-.648 1.449-1.445 1.449h-31.5a1.45 1.45 0 0 1 0-2.899h31.5c.797 0 1.445.649 1.445 1.45Zm-3.422-4.371v1.054H23.727v-1.055c0-1.015.828-1.843 1.843-1.843h23.86c1.015 0 1.843.828 1.843 1.844Zm-9.976-3.711h-7.594v-18.41h7.594ZM38.87 43.324H36.13V15.621h2.742Zm8.254-29.547a.86.86 0 0 0-.195-.023H28.074a.81.81 0 0 0-.195.023c-2.348.504-5.16 1.95-7.883 3.352-2.875 1.476-5.848 3.008-7.383 2.887-.027-.004-.05-.004-.078-.004H4.43a1.847 1.847 0 0 1-1.844-1.844c0-1.027.828-1.86 1.844-1.86h6.351c3.469.122 6.5-1.456 9.43-2.984 2.496-1.3 5.074-2.64 7.89-2.902h18.797c2.817.262 5.395 1.601 7.891 2.902 2.93 1.528 5.961 3.106 9.43 2.985h6.351c1.016 0 1.844.832 1.844 1.859a1.847 1.847 0 0 1-1.844 1.844h-8.105c-.024 0-.05 0-.074.004-1.536.12-4.508-1.41-7.387-2.887-2.719-1.402-5.535-2.848-7.879-3.352Zm16.273 8.102h2.563v12.23a9.289 9.289 0 0 0-2.563 0Zm1.282 28.598c-4.024 0-7.297-3.274-7.297-7.297 0-4.02 3.273-7.293 7.297-7.293 4.023 0 7.297 3.273 7.297 7.293 0 4.023-3.274 7.297-7.297 7.297ZM14.75 37.328c.516 0 .934.418.934.934v.8c.816.25 1.484.833 1.777 1.606a.934.934 0 0 1-1.75.66c-.098-.262-.445-.527-.918-.527-.504 0-.95.332-.95.71 0 .063.012.38.247.458l.96.328c.012.008.028.012.044.016l1.176.472c.78.309 1.25 1.082 1.25 2.067 0 1.105-.766 2.046-1.84 2.414v.832a.934.934 0 1 1-1.867 0v-.801c-.817-.246-1.485-.828-1.774-1.602a.934.934 0 1 1 1.746-.664c.098.266.445.532.918.532.508 0 .953-.333.953-.715 0-.196-.054-.313-.078-.336l-1.152-.457-.938-.32c-.914-.317-1.508-1.188-1.508-2.223 0-1.106.766-2.051 1.836-2.414v-.836c0-.516.418-.934.934-.934Zm52.7 7.524c0 1.105-.766 2.046-1.837 2.414v.832a.934.934 0 1 1-1.867 0v-.801c-.816-.246-1.484-.828-1.777-1.602a.934.934 0 1 1 1.746-.664c.101.266.45.532.918.532.508 0 .953-.333.953-.715 0-.196-.055-.313-.074-.336l-1.153-.457-.941-.32c-.914-.317-1.508-1.188-1.508-2.223 0-1.106.77-2.051 1.84-2.414v-.836a.934.934 0 1 1 1.867 0v.8c.817.25 1.485.833 1.778 1.606a.935.935 0 0 1-1.75.66c-.098-.262-.446-.527-.918-.527-.508 0-.954.332-.954.71 0 .063.016.38.247.458l.96.328a.22.22 0 0 0 .047.016l1.176.472c.781.309 1.246 1.082 1.246 2.067Zm0 0"/></g></svg>