<svg xmlns="http://www.w3.org/2000/svg" width="100" viewBox="0 0 75 75" height="100" version="1.0"><defs><clipPath id="a"><path d="M.703 2h73.5v73H.703Zm0 0"/></clipPath></defs><g clip-path="url(#a)"><path fill="#d4af37" d="M22.324 54.805a1.106 1.106 0 0 1 1.567 0 1.11 1.11 0 0 1 0 1.57l-10.864 10.86a1.106 1.106 0 0 1-1.566 0 1.108 1.108 0 0 1 0-1.575Zm-8.707-2.72c3.465 0 5.211 4.204 2.758 6.653-2.45 2.453-6.652.707-6.652-2.754a3.894 3.894 0 0 1 3.894-3.898Zm1.188 2.712c-1.051-1.059-2.864-.305-2.864 1.187 0 1.493 1.809 2.239 2.864 1.184a1.674 1.674 0 0 0 0-2.371Zm6.754 7.101c3.46 0 5.207 4.204 2.753 6.657-2.449 2.449-6.656.703-6.656-2.758a3.9 3.9 0 0 1 3.903-3.899Zm1.187 2.711c-1.058-1.054-2.871-.304-2.871 1.188s1.813 2.242 2.871 1.187a1.679 1.679 0 0 0 0-2.375ZM6.051 46.781h4.476v-7.48c0-8.809 14.118-8.817 14.118 0v7.48h4.476v-7.48c0-4.903-2.598-8.547-6.933-10.215-5.766-2.215-13.079-.016-15.399 6.016-.476 1.234-.738 2.632-.738 4.199Zm6.699 0h9.676v-7.48c0-5.887-9.676-5.875-9.676 0Zm18.594.051a3.728 3.728 0 0 1 3.12 3.676v13.25c3.4 1.453 7.247 2.152 10.993 2.21-2.492-5.698-1.195-12.308 3.156-16.656 4.719-4.718 12.028-5.785 17.903-2.542-.446-1.934-1.215-4.012-2.36-6.254-1.543-3.016-3.765-6.301-6.785-9.868a15.02 15.02 0 0 1-1.16-1.246c-.223-.27-.434-.539-.625-.812H35.973a15.123 15.123 0 0 1-1.793 2.063 60.14 60.14 0 0 0-1.98 2.452 48.35 48.35 0 0 0-1.466 1.977c.395 1.277.61 2.684.61 4.223Zm3.12 19.316v5.125A3.733 3.733 0 0 1 30.739 75h-26.3A3.733 3.733 0 0 1 .71 71.273V50.508a3.731 3.731 0 0 1 3.121-3.676v-7.531c0-10.461 10.473-15.614 19.145-12.281 2.828 1.085 5.242 2.996 6.746 5.687.527-.723 2.476-3.223 2.882-3.617.223-.211.422-.414.614-.617a2.155 2.155 0 0 1-1.442-2.02v-4.035c0-1.078.817-1.992 1.88-2.121-.598-1.18-1.071-2.715-1.266-4.438-.258-2.261-.059-4.879.945-7.43.043-.132.105-.253.2-.363h-.009C38.434 2.008 52.023.004 58.371 5.141c.406.328 1.191.972 1.324 1.504 1.153 4.59.297 9.695-2.277 13.636.727 0 1.277.059 1.848.633.386.387.625.918.625 1.504v4.035c0 .95-.641 1.781-1.536 2.047l.672.676c3.141 3.707 5.465 7.148 7.094 10.332 1.68 3.285 2.621 6.3 2.945 9.035.047.102 5.235 3.992 5.235 11.41C74.3 68.262 67.559 75 59.25 75a15.04 15.04 0 0 1-12.602-6.816c-4.109.078-8.375-.57-12.183-2.036ZM30.739 49h-26.3c-.829 0-1.508.68-1.508 1.508v20.765c0 .829.68 1.508 1.507 1.508h26.301a1.51 1.51 0 0 0 1.504-1.508V50.508A1.51 1.51 0 0 0 30.738 49Zm23.516 14.496c-.059-.61.39-1.148.996-1.203a1.109 1.109 0 0 1 1.207 1.004c.16 1.75 3.14 2.652 4.855 1.25.454-.371.739-.867.739-1.399 0-3.52-7.82-.453-7.82-6.394 0-2.176 1.796-3.785 3.89-4.2V51.43c0-.625.488-1.11 1.152-1.11v.004a1.11 1.11 0 0 1 1.106 1.13l-.024 1.097c2.106.406 3.915 2.02 3.915 4.203 0 .613-.5 1.11-1.11 1.11-.613 0-1.11-.5-1.11-1.11 0-1.844-3.097-2.844-4.859-1.402-.453.37-.738.867-.738 1.402 0 3.516 7.817.45 7.817 6.394 0 2.18-1.805 3.79-3.907 4.2l-.02 1.12c0 .614-.5 1.114-1.113 1.114s-1.109-.5-1.109-1.113v-1.125c-1.957-.387-3.68-1.82-3.867-3.848ZM68.32 50.88c-5.007-5.008-13.129-5.008-18.14 0-5.008 5.012-5.008 13.133 0 18.14 5.011 5.016 13.133 5.016 18.14 0 5.008-5.007 5.008-13.128 0-18.14ZM36.242 20.285h5.383c-.598-1.453-1.629-2.66-2.848-3.191a1.1 1.1 0 0 1-.57-1.457c.242-.563.895-.82 1.453-.57 1.992.867 3.567 2.828 4.317 5.218h1.015c-.203-1.34-.683-3.094-1.164-4.195a1.11 1.11 0 0 1 .567-1.461 1.11 1.11 0 0 1 1.46.57c.606 1.367 1.176 3.469 1.375 5.086h.59c.309-1.484.95-2.95 1.922-3.918.953-.945 2.156-1.344 3.387-.937.578.195.894.82.7 1.398a1.105 1.105 0 0 1-1.4.703c-1.019-.34-1.906 1.407-2.206 2.309-.043.144-.09.293-.13.445h4.575c2.582-3.156 3.684-7.344 3.195-11.383-6.168 4.305-16.535 5.54-22.898 1.633a13.635 13.635 0 0 0-.371 5.086c.242 2.168.933 3.895 1.648 4.664Zm21.43 2.219h-23.68v3.863h23.68ZM36.188 8.484c-.043.04-.086.075-.126.118 2.645 1.656 6.329 2.289 10.094 2 3.91-.301 7.864-1.598 10.79-3.77-5.094-4.074-15.997-2.656-20.758 1.652Zm0 0"/></g></svg>