<svg xmlns="http://www.w3.org/2000/svg" width="100" viewBox="0 0 75 75" height="100" version="1.0"><defs><clipPath id="a"><path d="M4.219 0h66.75v75H4.219Zm0 0"/></clipPath></defs><g clip-path="url(#a)"><path fill="#d4af37" d="M7.117 6.184h24.395C31.395 2.804 34.117 0 37.504 0s6.105 2.805 5.996 6.184h24.395a2.88 2.88 0 0 1 2.87 2.87v3.497a2.878 2.878 0 0 1-2.445 2.84v34.734a4.639 4.639 0 0 1-4.629 4.629H53.61L60.2 67.59h6.446c.539 0 .976.437.976.976v5.457c0 .54-.437.977-.976.977H8.359a.977.977 0 0 1-.976-.977v-5.457c0-.539.437-.976.976-.976h6.454l6.582-12.836H11.316a4.64 4.64 0 0 1-4.632-4.629v-34.73a2.885 2.885 0 0 1-2.442-2.84v-3.5a2.882 2.882 0 0 1 2.875-2.871Zm59.258 9.238H8.637v34.703a2.69 2.69 0 0 0 2.68 2.684H63.69a2.693 2.693 0 0 0 2.684-2.684Zm-33.758-7.29h-25.5a.93.93 0 0 0-.926.923v3.496c0 .508.422.926.926.926h60.778a.926.926 0 0 0 .918-.926V9.055a.923.923 0 0 0-.918-.922H42.39a.978.978 0 0 1-.95-1.2c.602-2.535-1.312-4.988-3.937-4.988-2.695 0-4.543 2.575-3.945 4.961a.972.972 0 0 1-.942 1.227ZM61.23 39.048h-6.832a.468.468 0 0 0-.464.46v1.18c0 .254.21.465.464.465h6.832c.25 0 .461-.21.461-.465v-1.18a.464.464 0 0 0-.46-.46Zm-6.828-1.95h6.828a2.414 2.414 0 0 1 2.41 2.41c0 .95.122 1.817-.476 2.622.598.8.477 1.668.477 2.617 0 .535-.176 1.035-.477 1.438.598.796.477 1.668.477 2.617a2.416 2.416 0 0 1-2.41 2.41h-6.829c-.539 0-1.035-.18-1.441-.48-.402.3-.898.48-1.434.48h-6.836c-.539 0-1.035-.18-1.433-.48-.403.3-.903.48-1.442.48h-6.828a2.414 2.414 0 0 1-2.41-2.41c0-1.133-.14-2.04.707-2.887a2.424 2.424 0 0 1 1.703-.707h6.828c.184 0 .356.023.528.059-.094-.41-.063-1.246-.063-1.703a2.416 2.416 0 0 1 2.41-2.41h6.836c.18 0 .348.019.52.054-.094-.41-.055-1.242-.055-1.7a2.409 2.409 0 0 1 2.41-2.41Zm-2.879 8.11a.465.465 0 0 0 .465-.46v-1.184a.468.468 0 0 0-.465-.465h-6.832c-.254 0-.46.21-.46.465v1.183c0 .254.21.461.46.461Zm2.41-1.645v1.184c0 .254.212.461.465.461h6.832c.25 0 .461-.207.461-.46v-1.184a.468.468 0 0 0-.46-.465h-6.833c-.25 0-.464.21-.464.465Zm-12.117 3.594h-6.832a.468.468 0 0 0-.464.461v1.184c0 .254.21.465.464.465h6.832c.258 0 .461-.211.461-.465v-1.184c0-.25-.203-.46-.46-.46Zm12.118.461v1.184c0 .258.21.465.464.465h6.832c.25 0 .461-.211.461-.465v-1.184c0-.25-.21-.457-.46-.457h-6.833a.464.464 0 0 0-.464.457Zm-2.41-.46H44.69c-.254 0-.46.21-.46.46v1.184c0 .254.21.465.46.465h6.832c.254 0 .461-.207.465-.465v-1.184a.47.47 0 0 0-.465-.46Zm-27.86.988c-.676.648-1.36.984-2.258 1.015a3.31 3.31 0 0 1-2.375-.898c-.648-.676-.984-1.36-1.015-2.262a3.28 3.28 0 0 1 .902-2.375h-.004l.02-.02 5.105-5.46c-6.562 1.257-12.672-3.762-12.672-10.47 0-5.886 4.77-10.655 10.656-10.655 5.887 0 10.657 4.773 10.657 10.656a10.6 10.6 0 0 1-1.727 5.816h11.188l7.511-6.804-2.382-2.481c-.57-.598-.184-1.586.628-1.64l10.403-.739a.972.972 0 0 1 1.031 1.11l-1.14 10.332c-.094.84-1.118 1.164-1.692.539l-2.316-2.41-8.418 7.628c-.668.66-1.407 1.032-2.38 1.032H31.22c-2.52 2.695-5.028 5.402-7.555 8.086Zm3.805-13.668.71-.641a8.707 8.707 0 0 0 0-12.316c-3.402-3.399-8.913-3.399-12.312 0a8.707 8.707 0 0 0 0 12.316 8.708 8.708 0 0 0 11.602.64Zm-5.184 12.289h.004l7.75-8.297a.999.999 0 0 1 .758-.36H43.39c.367 0 .734-.156.976-.414a.465.465 0 0 1 .074-.078l9.098-8.246c.422-.398 1.02-.379 1.395.004l1.558 1.621.785-7.14-7.168.507 1.637 1.703a.96.96 0 0 1-.05 1.387l-8.462 7.672a.965.965 0 0 1-.722.316H29.8c-.465 0-.707.192-1.031.489l-8.415 9.004a1.01 1.01 0 0 1-.062.07h-.004c-.477.543-.426 1.379.059 1.824l.058.059c.54.48 1.383.425 1.824-.059.02-.02.036-.043.055-.062Zm-3.64-17.278a.975.975 0 0 1 1.949 0c0 .703 1.629 1.196 2.547.504.195-.144.312-.324.312-.504 0-.683-1.144-.722-1.742-.879-1.555-.285-3.066-.62-3.066-2.738 0-1.36 1.113-2.348 2.402-2.664v-.45a.976.976 0 0 1 1.953 0v.45c1.29.316 2.402 1.305 2.402 2.664 0 .54-.437.977-.968.977a.977.977 0 0 1-.977-.977c0-.707-1.629-1.2-2.55-.504-.192.145-.313.324-.313.504 0 .645 1.015.715 1.695.871 1.57.29 3.113.606 3.113 2.746 0 1.356-1.113 2.352-2.402 2.668v.446h-1.953v-.446c-1.29-.316-2.402-1.312-2.402-2.668ZM36.527 56.04a.976.976 0 0 1 1.953 0v5.16c1.844.703 2.375 3.086.961 4.5-1.722 1.719-4.675.492-4.675-1.937 0-1.157.714-2.164 1.761-2.563Zm1.54 7.16c-.5-.496-1.356-.14-1.356.563s.855 1.054 1.355.554a.79.79 0 0 0 0-1.117Zm-21.075 4.39h4.098l6.59-12.835h-4.102Zm6.278 0h28.472l-6.59-12.835H29.855Zm30.648 0h4.102l-6.59-12.835h-4.098Zm11.758 1.946H9.336v3.516h56.34Zm0 0"/></g></svg>