<svg xmlns="http://www.w3.org/2000/svg" width="100" viewBox="0 0 75 75" height="100" version="1.0"><defs><clipPath id="a"><path d="M0 4.453h75v66H0Zm0 0"/></clipPath></defs><path fill="#d4af37" d="M60.18 40.598c0-6.285-2.551-11.98-6.672-16.102L37.406 40.598Zm-1.614-1.555H41.164L53.47 26.738a21.017 21.017 0 0 1 5.097 12.305Zm0 0"/><g clip-path="url(#a)"><path fill="#d4af37" d="M71.637 6.469h-42.7l-2.375-2.016H3.684A3.67 3.67 0 0 0 .02 8.117v58.766a3.67 3.67 0 0 0 3.664 3.664h67.632a3.67 3.67 0 0 0 3.664-3.664V9.813c0-1.844-1.5-3.344-3.343-3.344Zm1.789 6.77v53.644c0 1.164-.95 2.11-2.11 2.11H3.684c-1.16 0-2.11-.946-2.11-2.11V8.117c0-1.164.95-2.11 2.11-2.11h22.304l.543.462 1.832 1.554 3.657 3.106h39.296c1.16 0 2.11.945 2.11 2.11Zm0-2.993a3.617 3.617 0 0 0-2.11-.672H32.59l-1.824-1.55h40.87c.985 0 1.79.804 1.79 1.789Zm0 0"/></g><path fill="#d4af37" d="m28.117 64.262.723.285a23.455 23.455 0 0 0 8.566 1.61c12.985 0 23.551-10.567 23.551-23.552v-.777H36.875Zm31.27-20.88c-.41 11.77-10.114 21.216-21.98 21.216a21.81 21.81 0 0 1-7.27-1.23l7.8-19.985Zm0 0"/><path fill="#d4af37" d="m52.527 23.414-.55-.55a23.397 23.397 0 0 0-8.082-5.29 23.378 23.378 0 0 0-7.79-1.594v-.011h-1.554v.011c-12.63.415-22.774 10.81-22.774 23.536 0 6.289 2.45 12.203 6.899 16.648a23.444 23.444 0 0 0 8.082 5.293l.726.281 8.508-21.789Zm-16.422-5.879c1.168.04 2.32.172 3.458.395l-3.458 3.457Zm0 6.05 5.23-5.23c.673.192 1.337.415 1.993.668l.524.211-7.747 7.75Zm0 5.599 9.247-9.25c.71.363 1.398.765 2.066 1.207L36.105 32.449Zm0 5.464 12.598-12.593c.559.425 1.098.883 1.617 1.37L36.105 37.638Zm-1.554 4.72L26.605 59.71a21.831 21.831 0 0 1-6.828-4.645 21.838 21.838 0 0 1-6.445-15.55c0-11.868 9.45-21.567 21.219-21.98Zm0 0"/><path fill="#d4af37" d="M15.344 43.383h4.844v-10.36h-4.844Zm1.554-8.805h1.735v7.25h-1.735ZM26.281 29.906h-4.847v13.477h4.847Zm-1.558 11.922h-1.73V31.461h1.73ZM32.371 26.488h-4.844v16.895h4.844Zm-1.555 15.34h-1.734V28.047h1.734ZM17.953 12.21h2.152v1.556h-2.152ZM6.613 12.21h9.508v1.556H6.613ZM44.43 53.91c1.43.418 1.558.871 1.57 1.332.02.633-.352 1.168-.922 1.34a1.378 1.378 0 0 1-.246.05 1.165 1.165 0 0 1-.93-.288 1.301 1.301 0 0 1-.437-.969H41.91c0 .816.352 1.594.965 2.133.293.262.633.449.996.562v1.785h1.555v-1.757c.031-.012.066-.016.097-.028 1.235-.363 2.07-1.547 2.032-2.87-.055-2.013-1.97-2.571-2.688-2.782-1.39-.41-1.523-.738-1.562-1.191-.067-.735.39-1.387 1.062-1.52.035-.004.07-.012.106-.016.336-.043.664.063.925.297.278.242.434.598.434.965v.078l1.555.004v-.074a2.84 2.84 0 0 0-.957-2.137 2.8 2.8 0 0 0-1.004-.57v-1.781H43.87v1.757c-1.348.368-2.246 1.676-2.117 3.137.144 1.586 1.371 2.16 2.676 2.543Zm0 0"/></svg>