<svg xmlns="http://www.w3.org/2000/svg" width="100" viewBox="0 0 75 75" height="100" version="1.0"><defs><clipPath id="a"><path d="M3.938 20H71v55H3.937Zm0 0"/></clipPath></defs><g clip-path="url(#a)"><path fill="#d4af37" d="M70.309 51.547C69.21 49.98 66.883 49.402 65 50.223l-5.098 2.101c-3.914-2.937-9.02-4.613-14.5-4.758v-4.648l4.844-2.711a7.659 7.659 0 0 0 6.102 3.031c4.222 0 7.66-3.433 7.66-7.66 0-4.223-3.438-7.66-7.66-7.66-4.227 0-7.664 3.437-7.664 7.66 0 1.18.27 2.3.75 3.3l-4.032 2.255V21.46a.78.78 0 1 0-1.559 0v19.762l-4.23-2.368a7.607 7.607 0 0 0 .739-3.277c0-4.223-3.438-7.66-7.66-7.66-4.227 0-7.665 3.437-7.665 7.66 0 4.227 3.438 7.66 7.664 7.66a7.65 7.65 0 0 0 6.114-3.047l5.039 2.817v4.562c-4.801.13-9.41 1.465-13.106 3.801-1.953-.578-4.64-.914-7.386-.914h-4.848v-1.3a2.55 2.55 0 0 0-2.547-2.548h-2.613v-1.136a.78.78 0 0 0-.778-.782H4.754a.78.78 0 0 0-.777.782v28.742c0 .43.347.777.777.777h7.812c.43 0 .778-.347.778-.777v-1.5h2.613a2.552 2.552 0 0 0 2.547-2.547v-1.66l20.691 4.805c.438.093.922.14 1.43.14 1.621 0 3.465-.469 4.672-1.246l23.836-15.644c.887-.57 1.508-1.465 1.703-2.454.18-.91-.008-1.82-.527-2.562Zm-13.961-22.07a6.107 6.107 0 0 1 6.101 6.101 6.11 6.11 0 0 1-6.101 6.106 6.1 6.1 0 0 1-5.078-2.727c-.02-.059-.04-.117-.07-.172a.859.859 0 0 0-.157-.195 6.052 6.052 0 0 1-.8-3.012 6.108 6.108 0 0 1 6.105-6.101ZM32.69 41.684a6.112 6.112 0 0 1-6.105-6.106 6.108 6.108 0 0 1 6.105-6.101 6.11 6.11 0 0 1 6.102 6.101 6.11 6.11 0 0 1-6.102 6.106Zm-20.906 31.75H5.531V46.25h6.254Zm5.16-22.207V70.168a.992.992 0 0 1-.988.988h-2.613V48.168h2.613a.99.99 0 0 1 .988.988Zm27.676-2.114c5.086 0 9.852 1.383 13.582 3.914l-5.754 2.375c-.527-1.57-2.031-2.691-3.8-2.691H37.53c-1.304 0-3.261-.297-4.804-.703 3.445-1.875 7.601-2.895 11.894-2.895Zm24.684 4.696c-.114.574-.48 1.101-1.02 1.449L44.45 70.902c-1.234.793-3.488 1.2-4.91.887L18.504 66.91V52.016h4.848c2.933 0 5.765.394 7.578 1.058l.066.028c.004 0 .012.003.02.007 1.742.641 4.664 1.16 6.515 1.16h11.117c1.309 0 2.38.989 2.442 2.262 0 .032.004.067.004.102 0 .152-.016.3-.047.449-.223 1.11-1.23 1.914-2.399 1.914H37.551c-.328-.016-3.313-.074-5.793 2.07a.779.779 0 0 0 1.02 1.18c2.081-1.8 4.687-1.695 4.71-1.695.016 0 .028.004.043.004h11.117c1.907 0 3.555-1.332 3.926-3.164.024-.125.043-.254.059-.38l12.969-5.35c.003 0 .007-.005.015-.009 1.188-.52 2.75-.16 3.414.79.274.39.371.874.274 1.367Zm0 0"/></g><path fill="#d4af37" d="M32.285 33.559h2.207a.78.78 0 1 0 0-1.559H33.47v-.793a.78.78 0 1 0-1.559 0v.828a2.182 2.182 0 0 0-1.805 2.145c0 1.199.98 2.175 2.18 2.175h.809a.623.623 0 0 1 0 1.242h-2.207a.78.78 0 1 0 0 1.559h1.023v.793a.78.78 0 1 0 1.559 0v-.828a2.182 2.182 0 0 0 1.804-2.144c0-1.2-.98-2.176-2.18-2.176h-.808a.625.625 0 0 1-.62-.621c0-.344.28-.621.62-.621ZM55.941 36.355h.809c.344 0 .621.282.621.622a.62.62 0 0 1-.621.62h-2.207a.778.778 0 0 0-.777.782c0 .43.347.777.777.777h1.023v.793a.78.78 0 1 0 1.559 0v-.828a2.178 2.178 0 0 0 1.805-2.144 2.18 2.18 0 0 0-2.18-2.176h-.809a.625.625 0 0 1-.62-.621c0-.344.28-.621.62-.621h2.207a.78.78 0 1 0 0-1.559h-1.023v-.793a.78.78 0 1 0-1.559 0v.828a2.178 2.178 0 0 0-1.8 2.145c0 1.199.976 2.175 2.175 2.175ZM25.828 15.129c.031.246.79 6.117 5.309 9 1.593 1.016 3.437 1.523 5.52 1.523 1.624 0 3.39-.312 5.296-.933.004 0 .008-.004.016-.008.011-.004.02-.004.031-.012.008 0 .012-.004.02-.008a.296.296 0 0 0 .07-.035c.008-.004.012-.008.02-.008l.011-.011a.085.085 0 0 0 .031-.02.25.25 0 0 0 .051-.039c.012-.008.02-.015.027-.023.008-.008.016-.012.024-.02.004-.004.008-.008.012-.015.02-.02.039-.04.054-.06.004-.007.008-.01.012-.019.004 0 .004-.003.008-.007l.023-.032c.004-.011.012-.02.016-.027l.012-.02.023-.046a.271.271 0 0 0 .02-.051c.007-.016.011-.031.015-.043a.22.22 0 0 0 .016-.047l.012-.055c0-.015.003-.031.003-.047.004-.015.004-.03.004-.046.004-.02 0-.04 0-.06v-.046a.198.198 0 0 0-.007-.05v-.028c-.844-4.484-2.77-7.578-5.72-9.2-4.702-2.577-10.214-.417-10.444-.327-.02.007-.032.02-.047.027-.024.012-.051.023-.07.035l-.067.047c-.02.012-.035.027-.055.043-.02.02-.039.039-.054.059-.016.02-.032.035-.047.054l-.04.063c-.011.023-.027.043-.035.066a.476.476 0 0 0-.027.067c-.008.027-.02.05-.023.078a.198.198 0 0 0-.012.066.473.473 0 0 0-.008.156c0 .02-.004.04 0 .059Zm10.188.879c2.132 1.172 3.644 3.312 4.515 6.367l-6.93-4.102a.779.779 0 1 0-.796 1.34l6.933 4.102c-3.097.707-5.703.41-7.754-.895-3.109-1.976-4.187-5.777-4.5-7.261 1.453-.442 5.305-1.329 8.532.449ZM46.559 23.863c0 .016-.004.035-.004.051-.004.016-.004.031-.004.047v.059c0 .015.004.03.004.046.004.016.004.032.008.047l.011.055a.64.64 0 0 0 .012.043c.004.016.012.031.016.047l.023.05.023.047.008.02c.008.008.012.016.02.027.008.008.015.02.023.032 0 .003.004.007.004.007l.012.02c.02.02.035.043.055.062l.011.012c.008.008.016.012.024.02s.02.015.027.023l.05.04a.36.36 0 0 0 .032.019c.004.004.012.008.016.011a.03.03 0 0 1 .015.008.32.32 0 0 0 .075.035.03.03 0 0 0 .015.008c.012.008.024.008.035.012.004.004.008.008.016.008 1.902.62 3.672.933 5.297.933 2.078 0 3.926-.507 5.515-1.523 4.524-2.883 5.282-8.754 5.313-9v-.05c0-.028.004-.056 0-.087 0-.023-.004-.047-.008-.07l-.012-.078-.023-.07c-.008-.024-.02-.047-.027-.07l-.036-.063c-.015-.024-.027-.047-.042-.067l-.043-.054-.06-.06c-.015-.015-.034-.026-.054-.042-.02-.016-.039-.031-.062-.047l-.07-.035c-.016-.008-.032-.02-.047-.024-.235-.093-5.747-2.253-10.446.325-2.949 1.62-4.875 4.715-5.718 9.199-.004.008 0 .016-.004.027Zm6.464-7.855c3.227-1.778 7.079-.89 8.532-.45-.309 1.481-1.375 5.27-4.492 7.255-2.055 1.312-4.66 1.609-7.762.902l6.93-4.102a.778.778 0 1 0-.794-1.34l-6.93 4.102c.872-3.055 2.384-5.195 4.516-6.367ZM43.945 18.91c.008.008.02.016.032.024.011.011.023.02.035.03.011.005.02.013.031.016.02.016.043.028.066.04a.344.344 0 0 1 .04.023.03.03 0 0 1 .019.008c.031.012.062.02.094.027.004 0 .008.004.011.004a.116.116 0 0 0 .04.008.485.485 0 0 0 .128.015h.02v.004a.91.91 0 0 0 .148-.015c.004 0 .008 0 .012-.004.008 0 .02-.008.031-.008a.942.942 0 0 0 .098-.031c.004-.004.012-.004.02-.008.011-.004.023-.012.035-.02.023-.011.05-.023.074-.039l.027-.015c.012-.012.024-.02.035-.028a.217.217 0 0 1 .032-.023c3.449-2.988 5.152-6.211 5.062-9.574-.14-5.36-4.781-9.035-4.98-9.188-.012-.011-.028-.015-.04-.023a.567.567 0 0 0-.074-.047c-.023-.012-.043-.02-.066-.031-.023-.008-.047-.02-.074-.028-.024-.007-.047-.011-.07-.015A.265.265 0 0 0 44.655 0c-.027-.004-.05-.004-.074-.004h-.078l-.066.012a.624.624 0 0 0-.083.02c-.02.003-.042.015-.066.023-.023.008-.047.02-.07.031-.024.012-.047.027-.07.04a.161.161 0 0 1-.044.026c-.199.153-4.89 3.766-5.097 9.122-.133 3.363 1.527 6.609 4.937 9.64Zm-3.383-9.566c.141-3.684 2.883-6.528 4.008-7.547 1.114 1.027 3.809 3.894 3.907 7.586.066 2.437-1.02 4.828-3.223 7.125l.05-8.059a.778.778 0 0 0-.773-.785h-.004a.78.78 0 0 0-.78.774l-.052 8.058c-2.172-2.32-3.226-4.723-3.133-7.152Zm0 0"/></svg>