<svg xmlns="http://www.w3.org/2000/svg" width="100" viewBox="0 0 75 75" height="100" version="1.2"><path style="stroke:none;fill-rule:nonzero;fill:#d4af37;fill-opacity:1" d="M9.371 58.758a6.868 6.868 0 0 0-6.871 6.87A6.868 6.868 0 0 0 9.371 72.5a6.868 6.868 0 0 0 6.871-6.871 6.868 6.868 0 0 0-6.87-6.871Zm0 12.492a5.615 5.615 0 0 1-5.621-5.621 5.615 5.615 0 0 1 5.621-5.621 5.615 5.615 0 0 1 5.621 5.62 5.615 5.615 0 0 1-5.62 5.622Zm0 0"/><path style="stroke:none;fill-rule:nonzero;fill:#d4af37;fill-opacity:1" d="M9.996 61.973v-.72a.626.626 0 0 0-1.25 0v.72a2.184 2.184 0 0 0-1.562 2.093c0 .829.5 1.563 1.265 1.86l1.39.547c.298.109.485.39.485.703a.94.94 0 0 1-.937.937.94.94 0 0 1-.938-.937v-.313a.627.627 0 0 0-.625-.625.627.627 0 0 0-.625.625v.313c0 .984.656 1.828 1.563 2.094v.718a.626.626 0 0 0 1.25 0v-.718a2.184 2.184 0 0 0 1.562-2.094c0-.828-.5-1.563-1.265-1.86l-1.391-.546a.743.743 0 0 1-.484-.704.94.94 0 0 1 .937-.937.94.94 0 0 1 .938.937v.094c0 .344.28.625.625.625a.627.627 0 0 0 .625-.625v-.094c0-.984-.657-1.828-1.563-2.093Zm0 0"/><path style="stroke:none;fill-rule:nonzero;fill:#d4af37;fill-opacity:1" d="M26.238 61.254a2.507 2.507 0 0 0-2.5-2.496h-8.011a9.324 9.324 0 0 0-6.356-2.5C4.203 56.258 0 60.46 0 65.628 0 70.798 4.203 75 9.371 75h14.367c1.375 0 2.5-1.125 2.5-2.5a2.49 2.49 0 0 0-.843-1.875c.515-.45.843-1.121.843-1.871a2.49 2.49 0 0 0-.843-1.875 2.49 2.49 0 0 0 .843-1.875 2.49 2.49 0 0 0-.843-1.875 2.49 2.49 0 0 0 .843-1.875ZM1.25 65.629a8.122 8.122 0 0 1 16.242 0 8.122 8.122 0 0 1-16.242 0Zm22.488 8.121h-9.695a9.466 9.466 0 0 0 2.824-2.5h6.871c.688 0 1.25.563 1.25 1.25 0 .688-.562 1.25-1.25 1.25Zm0-3.746h-6.09c.407-.781.72-1.61.891-2.5h5.2c.687 0 1.25.562 1.25 1.25 0 .687-.563 1.25-1.25 1.25Zm0-3.75h-5.011c.015-.203.015-.422.015-.625 0-.64-.062-1.266-.187-1.875h5.183c.688 0 1.25.562 1.25 1.25 0 .687-.562 1.25-1.25 1.25Zm0-3.75h-5.527a9.604 9.604 0 0 0-1.344-2.496h6.871c.688 0 1.25.562 1.25 1.246 0 .687-.562 1.25-1.25 1.25ZM43.73 45.012h11.247a.627.627 0 0 0 .625-.625v-3.121a.627.627 0 0 0-.625-.625H43.73a.627.627 0 0 0-.625.625v3.12c0 .344.282.626.625.626Zm4.375-1.25V41.89h2.5v1.87Zm6.247 0h-2.5V41.89h2.5Zm-9.997-1.871h2.5v1.87h-2.5ZM50.605 54.383a.627.627 0 0 0 .625-.625v-4.371a.627.627 0 0 0-.625-.625H39.36a.627.627 0 0 0-.625.625v4.37c0 .345.282.626.625.626Zm-6.875-1.25v-3.121h2.5v3.12Zm6.25 0h-2.5v-3.121h2.5Zm-9.996-3.121h2.496v3.12h-2.496Zm0 0"/><path style="stroke:none;fill-rule:nonzero;fill:#d4af37;fill-opacity:1" d="m74.953 46.73-2.5-9.996a.607.607 0 0 0-.61-.468H55.54l-5.84-3.887a.613.613 0 0 0-.687 0l-15.684 10.46a.625.625 0 0 0-.172.86l1.39 2.078c.188.282.579.36.86.172l.828-.562v13.37h-8.12a.627.627 0 0 0-.626.626v14.992c0 .344.282.625.625.625h44.98a.627.627 0 0 0 .626-.625V59.383a.627.627 0 0 0-.625-.625h-.625V47.512h1.875a.69.69 0 0 0 .5-.235c.125-.14.156-.359.11-.547ZM35.22 44.56l-.688-1.047 14.824-9.887 14.82 9.887-.687 1.047-13.773-9.184a.687.687 0 0 0-.344-.11.562.562 0 0 0-.344.11Zm37.25 15.449v1.246H59.977v-1.246Zm0 8.746H59.977v-1.25h12.492Zm-43.73-3.75h12.495v1.25H28.738Zm12.495-1.25H28.738v-1.25h12.496Zm0 3.75v1.25H28.738v-1.25Zm-12.496 2.5h12.496v1.246H28.738Zm13.742-9.996h1.25v6.246h-1.25Zm29.989 3.746H59.977v-1.25h12.492Zm-13.742-4.996h-5v-8.746h5Zm-2.5 1.25v6.246H44.98v-6.246Zm0 7.496v6.246H44.98v-6.246Zm1.25-7.496h1.25v6.246h-1.25Zm2.5 9.996h12.492v1.246H59.977Zm0-3.75v-1.25h12.492v1.25ZM37.484 44.559l11.871-7.918 11.868 7.918v14.199h-1.246v-9.371a.627.627 0 0 0-.625-.625h-6.25a.627.627 0 0 0-.625.625v9.37H37.484Zm3.75 15.449v1.246H28.738v-1.246ZM28.738 72.5h12.496v1.25H28.738Zm13.742-4.996h1.25v6.246h-1.25Zm14.997 6.246v-6.246h1.25v6.246Zm2.5 0V72.5h12.492v1.25Zm11.242-14.992h-8.746V47.512h8.746Zm-8.746-12.496v-.875l.828.562c.11.078.234.11.344.11a.588.588 0 0 0 .515-.282l1.39-2.078a.625.625 0 0 0-.171-.86l-7.965-5.308h13.93l2.187 8.746H62.473ZM5.621 55.633a.627.627 0 0 0 .625-.625V1.375l34.988 5.246v28.395c0 .343.282.625.625.625.34 0 .621-.282.621-.625V6.09a.624.624 0 0 0-.527-.625L5.715.03a.635.635 0 0 0-.5.14.633.633 0 0 0-.219.47v54.351c0 .36.281.64.625.64Zm0 0"/><path style="stroke:none;fill-rule:nonzero;fill:#d4af37;fill-opacity:1" d="M39.984 8.152a.627.627 0 0 0-.625-.625H8.121a.627.627 0 0 0-.625.625v6.246c0 .344.281.625.625.625H39.36a.627.627 0 0 0 .625-.625Zm-1.25.625v1.25H8.746v-1.25Zm-18.742 2.5v2.5h-5v-2.5Zm1.25 0h4.996v2.5h-4.996Zm6.246 0h5v2.5h-5Zm-18.742 0h5v2.5h-5Zm24.988 2.5v-2.5h5v2.5ZM39.984 16.898a.627.627 0 0 0-.625-.625H8.121a.627.627 0 0 0-.625.625v6.25c0 .34.281.622.625.622H39.36a.626.626 0 0 0 .625-.622Zm-1.25.625v1.25H8.746v-1.25Zm-18.742 2.5v2.5h-5v-2.5Zm1.25 0h4.996v2.5h-4.996Zm6.246 0h5v2.5h-5Zm-18.742 0h5v2.5h-5Zm24.988 2.5v-2.5h5v2.5ZM39.984 25.645a.627.627 0 0 0-.625-.625H8.121a.627.627 0 0 0-.625.625v6.25c0 .343.281.625.625.625H39.36a.627.627 0 0 0 .625-.625Zm-1.25.625v1.25H8.746v-1.25Zm-18.742 2.5v2.5h-5v-2.5Zm1.25 0h4.996v2.5h-4.996Zm6.246 0h5v2.5h-5Zm-18.742 0h5v2.5h-5Zm24.988 2.5v-2.5h5v2.5ZM39.36 37.516a.627.627 0 0 0 .624-.625v-2.5a.627.627 0 0 0-.625-.625H8.121a.627.627 0 0 0-.625.625v6.25c0 .343.281.625.625.625h25.613a.627.627 0 0 0 .625-.625.627.627 0 0 0-.625-.625v-2.5h3.125a.627.627 0 0 0 .625-.625.627.627 0 0 0-.625-.625H8.746v-1.25h29.988v1.875c0 .343.282.625.625.625Zm-19.368 2.5h-5v-2.5h5Zm1.25-2.5h4.996v2.5h-4.996Zm11.246 2.5h-5v-2.5h5Zm-18.742-2.5v2.5h-5v-2.5ZM33.11 46.262a.626.626 0 0 0-.622.625v1.875h-5v-2.5h4.375a.627.627 0 0 0 .625-.625.627.627 0 0 0-.625-.625H8.746v-1.25h22.742a.627.627 0 0 0 .625-.625.627.627 0 0 0-.625-.625H8.121a.627.627 0 0 0-.625.625v6.25c0 .343.281.625.625.625H34.36a.627.627 0 0 0 .625-.625.627.627 0 0 0-.625-.625h-.625v-1.875a.627.627 0 0 0-.625-.625Zm-6.872 2.5h-4.996v-2.5h4.996Zm-6.246 0h-5v-2.5h5Zm-11.246-2.5h5v2.5h-5ZM33.11 57.508a.627.627 0 0 0 .624-.625v-5a.626.626 0 0 0-.625-.621H14.367a.625.625 0 0 0-.62.62v4.079c0 .344.28.625.62.625a.627.627 0 0 0 .625-.625v-.953h8.125v1.875c0 .344.281.625.621.625a.627.627 0 0 0 .625-.625v-1.875h8.125v1.875c0 .344.282.625.621.625Zm-18.118-3.75v-1.25h8.125v1.25Zm9.371 0v-1.25h8.125v1.25ZM64.348 53.758h5a.627.627 0 0 0 .625-.625v-3.746a.627.627 0 0 0-.625-.625h-5a.627.627 0 0 0-.625.625v3.746c0 .344.28.625.625.625Zm.625-3.746h3.75v2.496h-3.75Zm0 0"/></svg>