<svg xmlns="http://www.w3.org/2000/svg" width="100" viewBox="0 0 75 75" height="100" version="1.2"><defs><clipPath id="a"><path d="M4.266 0H70v75H4.266Zm0 0"/></clipPath></defs><g clip-path="url(#a)"><path style="stroke:none;fill-rule:evenodd;fill:#d4af37;fill-opacity:1" d="M17.223 39.89a1.113 1.113 0 0 1-.051-1.578 1.113 1.113 0 0 1 1.578-.05l1.168 1.093 3.281-3.117a1.113 1.113 0 0 1 1.578.043 1.117 1.117 0 0 1-.039 1.578l-4.043 3.84a1.12 1.12 0 0 1-1.535.008Zm4.132-7.03a5.968 5.968 0 0 0-5.964 5.96 5.972 5.972 0 0 0 5.964 5.965 5.97 5.97 0 0 0 5.961-5.965c0-3.289-2.675-5.96-5.96-5.96Zm0 14.16c4.52 0 8.196-3.68 8.196-8.2s-3.676-8.195-8.196-8.195c-4.523 0-8.199 3.676-8.199 8.195 0 4.52 3.676 8.2 8.2 8.2Zm44.98 9.042-9.839 7.797c-2.203 1.746-3.812 2.77-6.379 4.051-4.394 2.192-8.394 3.598-11.566 4.067-3.543.523-7.797-.192-11.906-.88-1.786-.3-3.47-.581-5.075-.761a161.546 161.546 0 0 0-6.562-.606V56.96c4.336-.823 8.039-1.948 12.703-.69.094.027.191.039.289.039h12.05a2.563 2.563 0 0 1 2.563 2.558 2.564 2.564 0 0 1-2.562 2.563H28a1.117 1.117 0 1 0 0 2.234h12.05a4.778 4.778 0 0 0 3.966-2.105l1.242.117c1.949 0 2.902-.735 4.262-1.516l14.527-8.387a2.422 2.422 0 0 1 3.312.887c.012.02.028.04.04.063.75 1.12-.024 2.52-1.063 3.34ZM12.77 71.382c0 .462-.375.837-.836.837H7.359a.837.837 0 0 1-.836-.836V55.828c0-.46.375-.836.836-.836h4.575c.46 0 .836.375.836.836Zm56.507-19.87a4.665 4.665 0 0 0-6.347-1.676l-14.528 8.387c-1.32.761-2.03 1.355-3.586 1.195a4.802 4.802 0 0 0-4.765-5.344H28.145c-4.454-1.16-7.985-.437-11.72.324-.534.11-1.077.223-1.628.329a3.07 3.07 0 0 0-2.863-1.97H7.359a3.073 3.073 0 0 0-3.07 3.071v15.555a3.073 3.073 0 0 0 3.07 3.07h4.575a3.08 3.08 0 0 0 3.015-2.484c2.078.148 4.133.336 6.375.59 5.54.62 12.028 2.441 17.551 1.629 3.453-.508 7.57-1.95 12.238-4.278 2.688-1.344 4.461-2.469 6.77-4.297l9.844-7.797c1.863-1.476 2.988-4.109 1.55-6.304ZM21.355 28.137c-5.894 0-10.683 4.793-10.683 10.683s4.789 10.684 10.683 10.684A10.63 10.63 0 0 0 31.555 42c.144-.469.578-.79 1.066-.79h10.535c.297 0 .582.118.79.33l2.382 2.386h.957l2.383-2.387a1.118 1.118 0 0 1 1.582 0l2.379 2.387h.957l2.387-2.387c.207-.207.492-.328.789-.328h4.207l.703-.703-4.36-4.363h-25.78c-.481 0-.907-.305-1.06-.758a10.683 10.683 0 0 0-10.117-7.25Zm22.34 5.773h-7.633v-7.879c0-.652.75-1.199 1.637-1.199h4.36c.886 0 1.636.547 1.636 1.2Zm-19.53-11.52L39.257 8.274c.332-.308.91-.308 1.242 0l15.094 14.118v11.52H45.93v-7.88c0-1.894-1.739-3.433-3.871-3.433h-4.36c-2.133 0-3.87 1.539-3.87 3.433v7.88h-.524a12.906 12.906 0 0 0-9.14-7.696Zm-4-1.37c.593.554 1.6.554 2.194 0L37.73 6.64c1.184-1.105 3.11-1.105 4.293 0l15.372 14.38c.597.554 1.601.554 2.199 0a1.241 1.241 0 0 0 0-1.852L43.848 4.48c-2.211-2.062-5.782-2.058-7.98 0L20.163 19.168c-.555.52-.55 1.332 0 1.852Zm1.19 30.718c5.375 0 10.141-3.312 12.063-8.293h9.277l2.383 2.387c.211.211.492.328.79.328h1.882c.293 0 .578-.117.79-.328l1.917-1.922 1.922 1.922c.21.211.492.328.789.328h1.883c.297 0 .578-.117.789-.328l2.383-2.387h4.207c.297 0 .578-.117.789-.324l1.824-1.824a1.118 1.118 0 0 0 0-1.582l-5.477-5.477a1.12 1.12 0 0 0-.793-.328h-.949v-10.3c2.258.386 4.418-1.22 4.418-3.516 0-.973-.398-1.88-1.125-2.559L45.371 2.84C42.328-.004 37.38.008 34.34 2.852L18.637 17.535a3.478 3.478 0 0 0 0 5.117c.894.836 2.133 1.153 3.293.957v2.309C14.578 25.59 8.438 31.48 8.438 38.82c0 7.125 5.792 12.918 12.917 12.918Zm0 0"/></g></svg>