<svg xmlns="http://www.w3.org/2000/svg" width="100" viewBox="0 0 75 75" height="100" version="1.2"><path style="stroke:none;fill-rule:nonzero;fill:#d4af37;fill-opacity:1" d="M25 62.5h-5v-5h5Zm1.25-7.5h-7.5c-.688 0-1.25.563-1.25 1.25v7.5c0 .688.563 1.25 1.25 1.25h7.5c.688 0 1.25-.563 1.25-1.25v-7.5c0-.688-.563-1.25-1.25-1.25M38.75 48.75V47.5h5v1.25Zm-7.5-1.25h5v1.25h-5Zm5-3.75V45h-5v-1.25Zm7.5 1.25h-5v-1.25h5Zm0-3.75h-12.5a2.502 2.502 0 0 0-2.5 2.5v5c0 1.375 1.121 2.5 2.5 2.5h12.5c1.375 0 2.5-1.125 2.5-2.5v-5c0-1.379-1.125-2.5-2.5-2.5"/><path style="stroke:none;fill-rule:nonzero;fill:#d4af37;fill-opacity:1" d="M53.965 72.5c.512-1.457 1.89-2.5 3.457-2.504.043.008.172.02.21.02a1.25 1.25 0 0 0 1.258-1.57 3.598 3.598 0 0 1-.14-.946 3.751 3.751 0 0 1 7.5 0c0 .688.563 1.25 1.25 1.25a5.008 5.008 0 0 1 4.84 3.75Zm-22.715 0V55h12.5v17.5Zm-28.414 0c.602-1.047 1.992-1.605 3.258-.98a1.252 1.252 0 0 0 1.676-1.676 2.495 2.495 0 0 1-.27-1.094c0-1.379 1.125-2.5 2.5-2.5a2.5 2.5 0 0 1 2.348 1.684c.183.52.636.859 1.23.836a.654.654 0 0 0 .172-.02 5.008 5.008 0 0 1 4.84 3.75Zm15.21-37.531c9.208-.282 16.642-7.707 16.923-16.922l1.652-1.652a1.252 1.252 0 0 1 1.758 0L56.98 35H18.016Zm-8.304 4.773a1.405 1.405 0 0 1-1.984 0c-.336-.34-.41-.73-.41-.992 0-.266.074-.656.41-.992l3.812-3.813c1.012.367 2.067.64 3.157.809ZM2.5 17.5c0-8.273 6.73-15 15-15s15 6.727 15 15c0 8.27-6.73 15-15 15s-15-6.73-15-15Zm34.121-8.605a1.252 1.252 0 0 1 1.758 0l28.863 28.863a1.405 1.405 0 0 1 0 1.984c-.34.336-.722.41-.992.41a1.38 1.38 0 0 1-.992-.41L40.145 14.63a3.744 3.744 0 0 0-5.293 0l-.098.098a16.701 16.701 0 0 0-.809-3.157ZM51.25 12.5h7.5v13.23l-7.5-7.5Zm-2.5-5h12.5V10h-12.5Zm6.25 50v5h-5v-5Zm2.488 6.297c0-.012.012-.027.012-.047v-7.5c0-.688-.563-1.25-1.25-1.25h-7.5c-.688 0-1.25.563-1.25 1.25v7.5c0 .688.563 1.25 1.25 1.25h7.5c.238 0 .45-.082.64-.2a6.145 6.145 0 0 0-.64 2.7v.125a6.266 6.266 0 0 0-4.863 4.875H46.25V53.75c0-.688-.563-1.25-1.25-1.25H30c-.688 0-1.25.563-1.25 1.25V72.5h-7.613a7.507 7.507 0 0 0-4.887-5.816V37.5h42.5v25.035a6.33 6.33 0 0 0-1.262 1.262Zm11.153 2.539a6.255 6.255 0 0 0-7.391-4.961v-22.11l2.242 2.243a3.857 3.857 0 0 0 2.758 1.144 3.87 3.87 0 0 0 2.758-1.144 3.907 3.907 0 0 0 0-5.516L61.25 28.23V12.5c1.375 0 2.5-1.125 2.5-2.5V7.5c0-1.379-1.125-2.5-2.5-2.5h-12.5a2.502 2.502 0 0 0-2.5 2.5V10c0 1.375 1.121 2.5 2.5 2.5v3.23L40.145 7.13a3.744 3.744 0 0 0-5.293 0L32.855 9.12C29.883 3.691 24.117 0 17.5 0 7.852 0 0 7.852 0 17.5c0 6.617 3.691 12.383 9.125 15.355l-3.133 3.137a3.857 3.857 0 0 0-1.144 2.758 3.87 3.87 0 0 0 1.144 2.758 3.887 3.887 0 0 0 2.758 1.144c1 0 1.996-.382 2.758-1.144l2.242-2.242v26.21A4.988 4.988 0 0 0 10 63.75c-2.758 0-5 2.242-5 5-2.758 0-5 2.242-5 5C0 74.438.563 75 1.25 75h72.5c.688 0 1.25-.563 1.25-1.25 0-3.75-2.766-6.86-6.36-7.414"/><path style="stroke:none;fill-rule:nonzero;fill:#d4af37;fill-opacity:1" d="M18.75 28.75v-2.5c2.07 0 3.75-1.68 3.75-3.75V20c0-2.07-1.68-3.75-3.75-3.75h-2.5c-.688 0-1.25-.563-1.25-1.25v-2.5c0-.688.563-1.25 1.25-1.25h2.5c.688 0 1.25.563 1.25 1.25v1.25h2.5V12.5c0-2.07-1.68-3.75-3.75-3.75v-2.5h-2.5v2.5c-2.07 0-3.75 1.68-3.75 3.75V15c0 2.07 1.68 3.75 3.75 3.75h2.5c.688 0 1.25.563 1.25 1.25v2.5c0 .688-.563 1.25-1.25 1.25h-2.5c-.688 0-1.25-.563-1.25-1.25v-1.25h-2.5v1.25c0 2.07 1.68 3.75 3.75 3.75v2.5h2.5M35 58.75h-2.5v2.5h1.25v2.5H32.5v2.5H35c.688 0 1.25-.563 1.25-1.25v-5c0-.688-.563-1.25-1.25-1.25"/></svg>