<svg xmlns="http://www.w3.org/2000/svg" width="100" viewBox="0 0 75 75" height="100" version="1.0"><defs><clipPath id="a"><path d="M4.172 0h66.75v75H4.172Zm0 0"/></clipPath></defs><g clip-path="url(#a)"><path fill="#d4af37" d="M29.387 44.996a1.221 1.221 0 0 1 1.101-1.328 1.192 1.192 0 0 1 1.313 1.098c.062.656 1.441 1.101 2.246.445.164-.148.277-.313.277-.492 0-.543-.754-.692-1.492-.836-1.738-.348-3.477-.676-3.477-3.235 0-1.476 1.082-2.64 2.477-3.066v-.312c0-.672.543-1.23 1.246-1.23.692 0 1.23.573 1.215 1.245v.297c1.379.426 2.477 1.574 2.477 3.066 0 .672-.54 1.215-1.215 1.215a1.21 1.21 0 0 1-1.211-1.215c0-.687-1.446-1.148-2.25-.492-.164.149-.278.313-.278.492 0 .543.739.692 1.493.836 1.738.348 3.476.676 3.476 3.235 0 1.492-1.097 2.656-2.492 3.066v.313a1.23 1.23 0 0 1-1.23 1.23 1.217 1.217 0 0 1-1.215-1.23v-.313c-1.293-.379-2.328-1.41-2.461-2.789Zm5.562-12.187c1.82.343 3.477 1.18 4.805 2.363.117.047 1.559.098 1.789.098 1.984 0 3.773-.344 5.035-.887.953-.426 1.559-.887 1.559-1.297v-2.148c-3.477 1.855-9.711 1.855-13.188 0Zm6.856 4.906a9.656 9.656 0 0 1 1.101 2.887c1.477-.118 2.79-.446 3.754-.887.903-.41 1.445-.852 1.445-1.246v-2.133c-1.625.852-3.937 1.344-6.3 1.379Zm1.332 5.297a10.591 10.591 0 0 1-.543 2.984c1.558-.098 2.953-.41 3.984-.851.953-.426 1.559-.887 1.559-1.297v-2.149c-1.344.707-3.117 1.164-5 1.313Zm-1.805 5.46c-3.594 5.137-10.941 5.794-15.371 1.364a10.058 10.058 0 0 1 0-14.238 10.046 10.046 0 0 1 6.543-2.938v-4.984c.016-1.461 1.164-2.676 3.02-3.496 3.363-1.477 8.644-1.477 12.007 0 1.953.851 3.067 2.101 3.02 3.691v15.992c0 1.477-1.149 2.707-3.02 3.528-1.558.672-3.886 1.132-6.199 1.082ZM38.461 37.32c-2.969-2.988-7.809-2.988-10.797 0-2.969 2.97-2.969 7.809 0 10.778a7.63 7.63 0 0 0 10.797 0 7.606 7.606 0 0 0 0-10.778Zm8.102-10.91c-2.723-1.195-7.348-1.195-10.07 0-2.067.902-2.067 1.692 0 2.594 2.722 1.195 7.347 1.195 10.07 0 2.066-.902 2.066-1.692 0-2.594Zm17.242 26.2-.067.113c-.543.918-.215 2.28.805 2.87 1.625.934 3.625-.542 3.133-2.41-.149-.527-.492-1-1-1.296-.985-.575-2.266-.246-2.871.722Zm-2.61-.016L55.34 49.21a21.336 21.336 0 0 1-16.617 9.598v6.757c3.347.918 4.496 5.153 2.015 7.645a4.56 4.56 0 0 1-6.46 0c-2.477-2.492-1.329-6.707 2.015-7.645V58.81a21.342 21.342 0 0 1-16.617-9.598l-5.856 3.383c.887 3.36-2.23 6.46-5.61 5.558-2.429-.656-3.886-3.164-3.23-5.593.903-3.38 5.133-4.528 7.61-2.067l5.855-3.379c-3.035-6.02-3.035-13.187 0-19.191l-5.855-3.383c-1.442 1.43-3.707 1.742-5.48.707a4.566 4.566 0 0 1-1.673-6.234 4.546 4.546 0 0 1 6.235-1.672 4.532 4.532 0 0 1 2.133 5.101l5.855 3.38a21.347 21.347 0 0 1 16.617-9.598v-6.79c-3.347-.917-4.496-5.152-2.015-7.644a4.56 4.56 0 0 1 6.46 0c2.497 2.492 1.329 6.707-2.015 7.645v6.757a21.342 21.342 0 0 1 16.617 9.598l5.856-3.383c-.887-3.36 2.23-6.46 5.61-5.558 2.429.656 3.886 3.164 3.23 5.593-.903 3.38-5.149 4.528-7.625 2.067l-5.86 3.379c3.035 6.02 3.035 13.187 0 19.191l5.86 3.383a4.566 4.566 0 0 1 7.168 5.527 4.546 4.546 0 0 1-6.235 1.672 4.528 4.528 0 0 1-2.133-5.066Zm-7.332-5.645c1.625-2.855 2.528-5.922 2.528-9.449 0-10.352-8.368-18.898-18.899-18.898S18.594 27.148 18.594 37.5s8.367 18.898 18.898 18.898a18.861 18.861 0 0 0 16.371-9.449ZM11.211 22.391l.066-.114c.543-.918.215-2.28-.804-2.87-1.641-.934-3.641.558-3.149 2.41.149.527.477 1 1 1.296 1 .575 2.281.246 2.887-.722Zm52.527-.114.067.114c.508.918 1.851 1.328 2.886.722 1.625-.953 1.329-3.41-.507-3.902-1.84-.492-3.317 1.441-2.446 3.066Zm-52.46 30.446-.048-.114c-.527-.918-1.855-1.328-2.89-.722-1.621.953-1.328 3.41.512 3.902 1.82.492 3.296-1.441 2.425-3.066ZM39.015 3.527c-1.344-1.343-3.641-.394-3.641 1.508 0 1.902 2.297 2.856 3.64 1.512.84-.84.84-2.184 0-3.02Zm0 64.926c-1.344-1.344-3.641-.39-3.641 1.512 0 1.887 2.297 2.836 3.64 1.508.84-.836.84-2.18 0-3.02Zm0 0"/></g></svg>