<svg xmlns="http://www.w3.org/2000/svg" width="100" viewBox="0 0 75 75" height="100" version="1.0"><path fill="#d4af37" d="M37.5 12.863c-13.586 0-24.637 11.051-24.637 24.637S23.914 62.137 37.5 62.137 62.137 51.086 62.137 37.5 51.086 12.863 37.5 12.863Zm0 47.407c-12.555 0-22.77-10.215-22.77-22.77S24.945 14.73 37.5 14.73 60.27 24.945 60.27 37.5 50.055 60.27 37.5 60.27ZM75 31.117a.935.935 0 0 0-.773-.922l-6.098-1.062a31.515 31.515 0 0 0-3.055-7.375l3.559-5.067a.93.93 0 0 0-.102-1.195L59.504 6.47a.936.936 0 0 0-1.2-.102l-5.066 3.559a31.487 31.487 0 0 0-7.37-3.055L44.8.773A.934.934 0 0 0 43.883 0H31.117a.935.935 0 0 0-.922.773l-1.062 6.098c-2.578.7-5.051 1.727-7.375 3.055l-5.063-3.559a.936.936 0 0 0-1.199.102L6.47 15.496a.936.936 0 0 0-.102 1.2l3.559 5.062a31.625 31.625 0 0 0-3.059 7.375L.773 30.195a.938.938 0 0 0-.773.922v12.766c0 .457.328.844.773.922l6.098 1.062c.7 2.578 1.727 5.051 3.055 7.375L6.367 58.31a.93.93 0 0 0 .102 1.195l9.027 9.027a.942.942 0 0 0 1.2.106l5.066-3.563a31.499 31.499 0 0 0 7.37 3.059l1.067 6.094a.93.93 0 0 0 .918.773h12.77a.93.93 0 0 0 .918-.773l1.066-6.094a31.499 31.499 0 0 0 7.371-3.059l5.067 3.563a.931.931 0 0 0 1.195-.106l9.027-9.027a.936.936 0 0 0 .106-1.195l-3.563-5.067a31.43 31.43 0 0 0 3.059-7.37l6.094-1.067a.93.93 0 0 0 .773-.918Zm-1.867 11.98-5.914 1.032a.947.947 0 0 0-.746.691 29.699 29.699 0 0 1-3.309 7.985.93.93 0 0 0 .035 1.015l3.453 4.914-7.918 7.918L53.82 63.2a.93.93 0 0 0-1.015-.035 29.751 29.751 0 0 1-7.985 3.309.936.936 0 0 0-.691.746l-1.031 5.914H31.902l-1.03-5.914a.947.947 0 0 0-.692-.746 29.625 29.625 0 0 1-7.985-3.309.938.938 0 0 0-1.015.04l-4.914 3.452-7.918-7.918 3.453-4.914a.937.937 0 0 0 .035-1.02 29.674 29.674 0 0 1-3.309-7.98.93.93 0 0 0-.746-.691l-5.914-1.031v-11.2l5.914-1.03a.947.947 0 0 0 .746-.692 29.699 29.699 0 0 1 3.309-7.985.93.93 0 0 0-.035-1.015l-3.453-4.914 7.918-7.918L21.18 11.8c.3.21.699.226 1.015.035a29.699 29.699 0 0 1 7.985-3.309.936.936 0 0 0 .691-.746l1.031-5.914h11.196l1.03 5.914a.947.947 0 0 0 .692.746 29.625 29.625 0 0 1 7.985 3.309.938.938 0 0 0 1.015-.04l4.914-3.452 7.918 7.918-3.453 4.914a.937.937 0 0 0-.035 1.02 29.727 29.727 0 0 1 3.309 7.98.93.93 0 0 0 .746.691l5.914 1.031ZM50.855 23.423l-2.414 1.023a1.431 1.431 0 0 0-.78 1.828c-1.915.567-3.716.141-5.47-.273-1.82-.43-3.539-.84-5.14-.027-.028.015-.059.03-.086.05-.719.47-1.32.934-1.844 1.368-.691-.29-1.543-.211-2.375-.133-1.234.113-2.61.238-3.965-.531a1.432 1.432 0 0 0-.547-1.856l-2.246-1.355a1.436 1.436 0 0 0-1.969.488l-6.742 11.164c-.195.328-.257.71-.164 1.086.094.371.325.687.653.883l2.246 1.355c.23.14.484.207.738.207.484 0 .96-.25 1.23-.695l.329-.547c.964.254 1.66.691 2.023 1.023l-.805.918c-.5.567-.75 1.301-.699 2.059.047.758.387 1.453.957 1.95.54.476 1.207.706 1.875.706.035 0 .07-.004.11-.004.09.684.414 1.301.933 1.758.54.473 1.207.707 1.875.707.016 0 .035-.004.05-.004.079.703.407 1.344.942 1.817.54.472 1.207.707 1.875.707.024 0 .043-.004.067-.004a2.833 2.833 0 0 0 2.812 2.504c.063 0 .125-.004.188-.008a2.82 2.82 0 0 0 1.394-.473 2.94 2.94 0 0 0 1.742.578 2.808 2.808 0 0 0 2.739-2.144c.21.05.433.078.656.078.062 0 .129 0 .191-.004.758-.05 1.45-.39 1.95-.96.316-.36.523-.778.629-1.22.199.047.406.07.609.07a2.84 2.84 0 0 0 2.137-.964c.347-.395.562-.86.652-1.344a2.84 2.84 0 0 0 2.54-.934 2.832 2.832 0 0 0 .35-3.242c1.047-.632 1.434-1.25 1.758-1.765.227-.367.403-.645.903-.914a1.432 1.432 0 0 0 1.87.75l2.415-1.02a1.438 1.438 0 0 0 .766-1.879L52.73 24.184a1.431 1.431 0 0 0-1.875-.762Zm-30.25 13.25-1.503-.91 6.293-10.422 1.503.906Zm4.415 5.336a.965.965 0 0 1-.329-.672.954.954 0 0 1 .239-.707l2.027-2.305a.97.97 0 0 1 1.375-.09.976.976 0 0 1 .09 1.375l-1.977 2.246-.05.06a.976.976 0 0 1-1.375.093Zm2.918 2.457a.965.965 0 0 1-.329-.668.97.97 0 0 1 .239-.707l1.976-2.246c.016-.024.031-.043.047-.063h.004a.976.976 0 0 1 1.465 1.29l-.63.714-1.398 1.594a.976.976 0 0 1-1.375.086Zm2.867 2.52a.972.972 0 0 1-.328-.669.987.987 0 0 1 .238-.707l1.398-1.593a.976.976 0 0 1 1.465 1.289l-1.164 1.324h-.004l-.144.172-.086.094a.972.972 0 0 1-1.375.09Zm3.59 2.738a.954.954 0 0 1-.708-.239.98.98 0 0 1-.09-1.375l.016-.015.2-.23a.995.995 0 0 1 .734-.329.976.976 0 0 1 .73 1.617l-.215.246a.976.976 0 0 1-.667.325Zm3.968-.215c-.304.344-.812.41-1.23.18a2.846 2.846 0 0 0-.23-2.762l1.37 1.203.004.004a.975.975 0 0 1 .086 1.375Zm9.989-6.469a.98.98 0 0 1-1.38.09l-.667-.59H46.3v-.004l-4.676-4.11a.933.933 0 1 0-1.234 1.402l4.68 4.114a.98.98 0 0 1 .09 1.375.984.984 0 0 1-1.38.09l-4.828-4.246a.933.933 0 1 0-1.23 1.406l3.98 3.496a.976.976 0 0 1-.59 1.696.987.987 0 0 1-.707-.238l-2.52-2.215a.931.931 0 0 0-1.32.086.937.937 0 0 0-.16.972 2.75 2.75 0 0 0-.965-.55 2.846 2.846 0 0 0-.718-3.286 2.827 2.827 0 0 0-1.313-.648 2.844 2.844 0 0 0-.926-2.59 2.844 2.844 0 0 0-1.984-.7 2.82 2.82 0 0 0-.938-1.757 2.847 2.847 0 0 0-4 .246c-.542-.496-1.316-.957-2.253-1.273l4.515-7.477c1.223.707 2.453.879 3.528.879.578 0 1.109-.05 1.57-.094.055-.004.117-.008.18-.015-2.063 1.652-1.786 3.472-1.563 4.945.16 1.062.297 1.98-.305 2.918a.934.934 0 0 0 .484 1.39c1.145.387 2.438.122 3.544-.73 1.238-.957 1.98-2.43 1.89-3.758-.027-.375.203-.992.504-1.168.051-.03.176-.105.496.086l10.11 8.883a.98.98 0 0 1 .09 1.375Zm1.925-4.766c-.289.465-.547.875-1.5 1.36l-9.449-8.305a2.166 2.166 0 0 0-.113-.086c-1.156-.738-2.067-.414-2.508-.152-1.008.594-1.48 1.937-1.418 2.902.047.7-.43 1.586-1.164 2.153-.14.109-.395.277-.707.394.234-1.008.09-1.957-.035-2.77-.207-1.374-.344-2.28.984-3.289.344-.257.696-.57 1.067-.894.683-.598 1.457-1.277 2.504-1.965.984-.473 2.304-.16 3.824.2 1.87.44 4.152.984 6.625.183l3.644 8.625c-.953.473-1.36 1.016-1.754 1.644Zm4.028-1.062-4.739-11.215 1.618-.683 4.742 11.214Zm0 0"/></svg>