<svg xmlns="http://www.w3.org/2000/svg" width="100" viewBox="0 0 75 75" height="100" version="1.0"><defs><clipPath id="a"><path d="M0 2.523h75v69.75H0Zm0 0"/></clipPath></defs><path fill="#d4af37" d="M18.484 42.832a6.52 6.52 0 1 0 6.524 6.52 6.522 6.522 0 0 0-6.524-6.52Zm0 11.855a5.332 5.332 0 0 1-5.332-5.335 5.329 5.329 0 0 1 5.332-5.332 5.33 5.33 0 0 1 5.336 5.332 5.333 5.333 0 0 1-5.336 5.336Zm0 0"/><path fill="#d4af37" d="M19.078 45.887v-.684a.596.596 0 0 0-.594-.594c-.324 0-.59.27-.59.594v.684a2.07 2.07 0 0 0-1.484 1.984c0 .785.477 1.48 1.203 1.762l1.317.52a.71.71 0 0 1 .46.667c0 .489-.402.89-.89.89a.892.892 0 0 1-.887-.89v-.297a.599.599 0 0 0-.593-.593.596.596 0 0 0-.594.593v.297c0 .934.62 1.735 1.484 1.985v.683c0 .325.266.594.59.594.328 0 .594-.27.594-.594v-.683c.86-.25 1.48-1.051 1.48-1.985 0-.785-.472-1.48-1.199-1.761l-1.32-.52a.706.706 0 0 1-.457-.668c0-.488.398-.89.886-.89.493 0 .891.402.891.89v.09c0 .324.266.594.594.594.324 0 .593-.27.593-.594v-.09a2.07 2.07 0 0 0-1.484-1.984ZM9.594 57.059a6.522 6.522 0 0 0 0 13.043 6.522 6.522 0 0 0 0-13.043Zm0 11.855a5.332 5.332 0 0 1-5.336-5.332 5.333 5.333 0 0 1 5.336-5.336 5.333 5.333 0 0 1 5.336 5.336 5.332 5.332 0 0 1-5.336 5.332Zm0 0"/><path fill="#d4af37" d="M10.188 60.113v-.683a.596.596 0 0 0-.594-.594.599.599 0 0 0-.594.594v.683c-.86.25-1.48 1.051-1.48 1.985 0 .785.472 1.484 1.199 1.765l1.32.516a.71.71 0 0 1 .461.668c0 .488-.402.89-.89.89a.895.895 0 0 1-.891-.89v-.297a.595.595 0 0 0-.59-.594.596.596 0 0 0-.594.594v.297c0 .933.621 1.734 1.48 1.984v.684c0 .324.266.594.594.594.325 0 .594-.27.594-.594v-.684c.86-.25 1.48-1.05 1.48-1.984 0-.785-.472-1.48-1.199-1.762l-1.32-.52a.706.706 0 0 1-.457-.667c0-.489.398-.891.887-.891.488 0 .89.402.89.89v.09c0 .325.266.594.594.594.324 0 .59-.27.59-.593v-.09c0-.934-.621-1.735-1.48-1.985Zm0 0"/><g clip-path="url(#a)"><path fill="#d4af37" d="M74.848 7.516a.594.594 0 0 0-.535-.25l-1.883.175V3.117a.593.593 0 0 0-.594-.594H65.91a.593.593 0 0 0-.594.594v4.977l-2 .195a.585.585 0 0 0-.488.34.574.574 0 0 0 .059.594l1.48 2.117-2.605 1.793v-4.09a.599.599 0 0 0-.594-.594h-5.93a.599.599 0 0 0-.593.594v9.012l-3.555 2.46v-4.359a.596.596 0 0 0-.594-.593H44.57a.596.596 0 0 0-.593.593v9.262l-3.559 2.46V23.27a.595.595 0 0 0-.59-.594h-5.93a.599.599 0 0 0-.593.594v4.742L29.75 25.64v-7.114a.596.596 0 0 0-.594-.593H23.23a.596.596 0 0 0-.593.593v7.235l-3.559 2.605v-2.726a.596.596 0 0 0-.594-.594H12.56a.596.596 0 0 0-.594.594v7.96L8.41 36.208v-3.453c0-.324-.27-.59-.594-.59h-5.93a.592.592 0 0 0-.59.59v8.684l-.948.699a.59.59 0 0 0-.133.828c.191.27.562.328.828.133l25.09-18.434 10.375 6.906a.61.61 0 0 0 .668 0l28.347-19.593a.583.583 0 0 0 .254-.383.615.615 0 0 0-.105-.446l-1.246-1.765 8.937-.828-3.824 8.12-1.156-1.644a.588.588 0 0 0-.813-.148L36.88 36.09l-10.3-6.863a.607.607 0 0 0-.684.015L.348 48.02a.59.59 0 0 0-.133.828.572.572 0 0 0 .472.238.633.633 0 0 0 .356-.117l.238-.18v1.75c0 .324.266.594.594.594h5.926c.328 0 .594-.27.594-.594v-6.965l3.554-2.61v2.356a8.875 8.875 0 0 0-2.37 6.032 8.81 8.81 0 0 0 1.956 5.558 8.492 8.492 0 0 0-1.957-.222c-4.902 0-8.89 3.988-8.89 8.894 0 4.902 3.988 8.89 8.89 8.89.535 0 1.055-.046 1.574-.148.25.09.516.149.797.149h13.043a2.371 2.371 0 0 0 2.371-2.371c0-.711-.312-1.348-.8-1.778.046-.031.074-.062.117-.105a2.363 2.363 0 0 0-.102-3.453 2.343 2.343 0 0 0 .816-1.777c0-.712-.312-1.348-.8-1.782a.68.68 0 0 0 .117-.102c.445-.445.695-1.039.695-1.675a2.377 2.377 0 0 0-2.37-2.371h-2.09a8.915 8.915 0 0 0 4.284-5.926h1.364v20.746c0 .328.265.594.593.594h42.68a.596.596 0 0 0 .594-.594v-58.54l2.457-5.23a.696.696 0 0 0-.07-.593Zm-19.016 2.12h4.742v4.313l-4.742 3.274ZM45.16 16.75h4.742v4.578l-4.742 3.277Zm-32.008 9.484h4.743v3.008l-4.743 3.485ZM2.48 33.348h4.743v3.734L2.48 40.566Zm23.297-9.883-1.957 1.437v-5.78h4.742v5.718l-2.101-1.406a.607.607 0 0 0-.684.03Zm11.055 6.89-2.34-1.558v-4.934h4.742v4.832ZM66.504 3.707h4.742v3.84l-4.742.445Zm4.742 62.836H59.391v-1.184h11.855ZM29.75 49.945V32.754l3.555 2.371v14.82Zm0 1.188h11.855v1.183H29.75Zm26.082-1.188V24.441l4.742-3.277v28.781Zm15.414 11.856H59.391v-1.184h11.855Zm0-2.371H59.391v-1.184h11.855Zm-11.855-2.371v-1.184h11.855v1.184Zm11.855-2.371H59.391v-1.184h11.855Zm-13.043 2.37H57.02v-5.925h1.183Zm-16.598 9.485H29.75v-1.184h11.855ZM29.75 64.172v-1.184h11.855v1.184ZM41.605 61.8H29.75v-1.184h11.855Zm0-2.371H29.75v-1.184h11.855Zm1.184-8.297h1.188v5.926h-1.188Zm13.043 0v5.926H45.16v-5.926Zm0 7.113v5.926H45.16v-5.926Zm-1.187-8.3H51.09V27.714l3.555-2.457Zm-4.743 0H45.16V31.804l4.742-3.274Zm-5.925 0h-3.559V35.081l3.559-2.46ZM29.75 53.503h11.855v1.184H29.75Zm0 2.371h11.855v1.184H29.75Zm0 11.855h11.855v1.184H29.75Zm13.04-9.484h1.187v5.926h-1.188Zm13.042 7.113v5.926H45.16V65.36Zm1.188-7.113h1.183v5.926H57.02Zm2.37 9.484h11.856v1.184H59.391Zm0-3.558v-1.184h11.856v1.184Zm11.856-11.856H59.391v-1.183h11.855Zm-9.484-2.37v-29.61l3.554-2.461v32.07ZM37.219 37.288l2.015-1.39v14.046h-4.742v-14.02l2.059 1.38a.581.581 0 0 0 .668-.016Zm-18.14 3.188v-4.758l3.558-2.61V41.5a8.832 8.832 0 0 0-3.559-1.023ZM7.222 49.945H2.48V47.93l4.743-3.48ZM17.895 36.61v3.883a8.79 8.79 0 0 0-4.743 1.762V40.09ZM1.887 63.582a7.71 7.71 0 0 1 7.707-7.707 7.71 7.71 0 0 1 7.707 7.707c0 4.25-3.453 7.703-7.707 7.703s-7.707-3.453-7.707-7.703Zm24.304 6.52a1.2 1.2 0 0 1-.34.843c-.222.223-.519.34-.843.34h-10.98a8.908 8.908 0 0 0 2.679-2.37h8.3c.653 0 1.184.534 1.184 1.187Zm0-3.559c0 .312-.117.625-.34.848a1.19 1.19 0 0 1-.843.34h-7.559c.387-.743.68-1.528.844-2.372h6.715c.652 0 1.183.532 1.183 1.184Zm0-3.555a1.2 1.2 0 0 1-.34.844c-.222.223-.519.34-.843.34h-6.535c.011-.192.011-.399.011-.59 0-.61-.058-1.203-.175-1.781h6.699c.652 0 1.183.535 1.183 1.187Zm-1.183-4.742c.652 0 1.183.531 1.183 1.184 0 .312-.117.625-.34.843-.222.223-.519.344-.843.344H17.98a8.999 8.999 0 0 0-1.273-2.37Zm-6.524-1.187c-4.25 0-7.703-3.454-7.703-7.707a7.709 7.709 0 0 1 7.703-7.704c4.254 0 7.707 3.454 7.707 7.704a7.71 7.71 0 0 1-7.707 7.707Zm5.336-14.82V32.233l2.461-1.804 2.282 1.523v17.992h-1.2c.016-.191.016-.398.016-.593 0-2.903-1.395-5.48-3.559-7.114Zm5.93 27.863h11.855v1.183H29.75Zm13.04-4.743h1.187v5.926h-1.188Zm14.23 5.926V65.36h1.183v5.926Zm2.37 0v-1.183h11.856v1.183Zm11.856-21.34h-4.742V17.062l1.273-.875 1.407 2a.594.594 0 0 0 1.023-.09l1.04-2.238Zm0 0"/></g></svg>